<svg width="2437" height="1232" viewBox="0 0 2437 1232" fill="none" xmlns="http://www.w3.org/2000/svg">
<rect width="120" height="408" transform="translate(268.5 412)" fill="#9F9FA9"/>
<path d="M242.1 894.4C242.1 894.4 242.1 890.533 242.1 882.8V856V829.2V817.6H253.7H280.5H307.3H318.9C318.9 817.6 318.9 821.467 318.9 829.2V856V882.8V894.4C318.9 894.4 315.033 894.4 307.3 894.4H280.5H253.7H242.1ZM290.1 894.4C290.1 894.4 290.1 890.533 290.1 882.8V856V829.2V817.6H301.7H328.5H355.3H366.9C366.9 817.6 366.9 821.467 366.9 829.2V856V882.8V894.4C366.9 894.4 363.033 894.4 355.3 894.4H328.5H301.7H290.1ZM338.1 894.4C338.1 894.4 338.1 890.533 338.1 882.8V856V829.2V817.6H349.7H376.5H403.3H414.9C414.9 817.6 414.9 821.467 414.9 829.2V856V882.8V894.4C414.9 894.4 411.033 894.4 403.3 894.4H376.5H349.7H338.1ZM194.1 846.4C194.1 846.4 194.1 842.533 194.1 834.8V808V781.2V769.6H205.7H232.5H259.3H270.9C270.9 769.6 270.9 773.467 270.9 781.2V808V834.8V846.4C270.9 846.4 267.033 846.4 259.3 846.4H232.5H205.7H194.1ZM386.1 846.4C386.1 846.4 386.1 842.533 386.1 834.8V808V781.2V769.6H397.7H424.5H451.3H462.9C462.9 769.6 462.9 773.467 462.9 781.2V808V834.8V846.4C462.9 846.4 459.033 846.4 451.3 846.4H424.5H397.7H386.1ZM194.1 798.4C194.1 798.4 194.1 794.533 194.1 786.8V760V733.2V721.6H205.7H232.5H259.3H270.9C270.9 721.6 270.9 725.467 270.9 733.2V760V786.8V798.4C270.9 798.4 267.033 798.4 259.3 798.4H232.5H205.7H194.1ZM386.1 798.4C386.1 798.4 386.1 794.533 386.1 786.8V760V733.2V721.6H397.7H424.5H451.3H462.9C462.9 721.6 462.9 725.467 462.9 733.2V760V786.8V798.4C462.9 798.4 459.033 798.4 451.3 798.4H424.5H397.7H386.1ZM194.1 750.4C194.1 750.4 194.1 746.533 194.1 738.8V712V685.2V673.6H205.7H232.5H259.3H270.9C270.9 673.6 270.9 677.467 270.9 685.2V712V738.8V750.4C270.9 750.4 267.033 750.4 259.3 750.4H232.5H205.7H194.1ZM386.1 750.4C386.1 750.4 386.1 746.533 386.1 738.8V712V685.2V673.6H397.7H424.5H451.3H462.9C462.9 673.6 462.9 677.467 462.9 685.2V712V738.8V750.4C462.9 750.4 459.033 750.4 451.3 750.4H424.5H397.7H386.1ZM194.1 702.4C194.1 702.4 194.1 698.533 194.1 690.8V664V637.2V625.6H205.7H232.5H259.3H270.9C270.9 625.6 270.9 629.467 270.9 637.2V664V690.8V702.4C270.9 702.4 267.033 702.4 259.3 702.4H232.5H205.7H194.1ZM386.1 702.4C386.1 702.4 386.1 698.533 386.1 690.8V664V637.2V625.6H397.7H424.5H451.3H462.9C462.9 625.6 462.9 629.467 462.9 637.2V664V690.8V702.4C462.9 702.4 459.033 702.4 451.3 702.4H424.5H397.7H386.1ZM194.1 654.4C194.1 654.4 194.1 650.533 194.1 642.8V616V589.2V577.6H205.7H232.5H259.3H270.9C270.9 577.6 270.9 581.467 270.9 589.2V616V642.8V654.4C270.9 654.4 267.033 654.4 259.3 654.4H232.5H205.7H194.1ZM386.1 654.4C386.1 654.4 386.1 650.533 386.1 642.8V616V589.2V577.6H397.7H424.5H451.3H462.9C462.9 577.6 462.9 581.467 462.9 589.2V616V642.8V654.4C462.9 654.4 459.033 654.4 451.3 654.4H424.5H397.7H386.1ZM194.1 606.4C194.1 606.4 194.1 602.533 194.1 594.8V568V541.2V529.6H205.7H232.5H259.3H270.9C270.9 529.6 270.9 533.467 270.9 541.2V568V594.8V606.4C270.9 606.4 267.033 606.4 259.3 606.4H232.5H205.7H194.1ZM386.1 606.4C386.1 606.4 386.1 602.533 386.1 594.8V568V541.2V529.6H397.7H424.5H451.3H462.9C462.9 529.6 462.9 533.467 462.9 541.2V568V594.8V606.4C462.9 606.4 459.033 606.4 451.3 606.4H424.5H397.7H386.1ZM194.1 558.4C194.1 558.4 194.1 554.533 194.1 546.8V520V493.2V481.6H205.7H232.5H259.3H270.9C270.9 481.6 270.9 485.467 270.9 493.2V520V546.8V558.4C270.9 558.4 267.033 558.4 259.3 558.4H232.5H205.7H194.1ZM386.1 558.4C386.1 558.4 386.1 554.533 386.1 546.8V520V493.2V481.6H397.7H424.5H451.3H462.9C462.9 481.6 462.9 485.467 462.9 493.2V520V546.8V558.4C462.9 558.4 459.033 558.4 451.3 558.4H424.5H397.7H386.1ZM194.1 510.4C194.1 510.4 194.1 506.533 194.1 498.8V472V445.2V433.6H205.7H232.5H259.3H270.9C270.9 433.6 270.9 437.467 270.9 445.2V472V498.8V510.4C270.9 510.4 267.033 510.4 259.3 510.4H232.5H205.7H194.1ZM386.1 510.4C386.1 510.4 386.1 506.533 386.1 498.8V472V445.2V433.6H397.7H424.5H451.3H462.9C462.9 433.6 462.9 437.467 462.9 445.2V472V498.8V510.4C462.9 510.4 459.033 510.4 451.3 510.4H424.5H397.7H386.1ZM194.1 462.4C194.1 462.4 194.1 458.533 194.1 450.8V424V397.2V385.6H205.7H232.5H259.3H270.9C270.9 385.6 270.9 389.467 270.9 397.2V424V450.8V462.4C270.9 462.4 267.033 462.4 259.3 462.4H232.5H205.7H194.1ZM386.1 462.4C386.1 462.4 386.1 458.533 386.1 450.8V424V397.2V385.6H397.7H424.5H451.3H462.9C462.9 385.6 462.9 389.467 462.9 397.2V424V450.8V462.4C462.9 462.4 459.033 462.4 451.3 462.4H424.5H397.7H386.1ZM242.1 414.4C242.1 414.4 242.1 410.533 242.1 402.8V376V349.2V337.6H253.7H280.5H307.3H318.9C318.9 337.6 318.9 341.467 318.9 349.2V376V402.8V414.4C318.9 414.4 315.033 414.4 307.3 414.4H280.5H253.7H242.1ZM290.1 414.4C290.1 414.4 290.1 410.533 290.1 402.8V376V349.2V337.6H301.7H328.5H355.3H366.9C366.9 337.6 366.9 341.467 366.9 349.2V376V402.8V414.4C366.9 414.4 363.033 414.4 355.3 414.4H328.5H301.7H290.1ZM338.1 414.4C338.1 414.4 338.1 410.533 338.1 402.8V376V349.2V337.6H349.7H376.5H403.3H414.9C414.9 337.6 414.9 341.467 414.9 349.2V376V402.8V414.4C414.9 414.4 411.033 414.4 403.3 414.4H376.5H349.7H338.1ZM578.381 894.4C578.381 894.4 578.381 890.533 578.381 882.8V856V829.2V817.6H589.981H616.781H643.581H655.181C655.181 817.6 655.181 821.467 655.181 829.2V856V882.8V894.4C655.181 894.4 651.315 894.4 643.581 894.4H616.781H589.981H578.381ZM626.381 894.4C626.381 894.4 626.381 890.533 626.381 882.8V856V829.2V817.6H637.981H664.781H691.581H703.181C703.181 817.6 703.181 821.467 703.181 829.2V856V882.8V894.4C703.181 894.4 699.315 894.4 691.581 894.4H664.781H637.981H626.381ZM674.381 894.4C674.381 894.4 674.381 890.533 674.381 882.8V856V829.2V817.6H685.981H712.781H739.581H751.181C751.181 817.6 751.181 821.467 751.181 829.2V856V882.8V894.4C751.181 894.4 747.315 894.4 739.581 894.4H712.781H685.981H674.381ZM530.381 846.4C530.381 846.4 530.381 842.533 530.381 834.8V808V781.2V769.6H541.981H568.781H595.581H607.181C607.181 769.6 607.181 773.467 607.181 781.2V808V834.8V846.4C607.181 846.4 603.315 846.4 595.581 846.4H568.781H541.981H530.381ZM722.381 846.4C722.381 846.4 722.381 842.533 722.381 834.8V808V781.2V769.6H733.981H760.781H787.581H799.181C799.181 769.6 799.181 773.467 799.181 781.2V808V834.8V846.4C799.181 846.4 795.315 846.4 787.581 846.4H760.781H733.981H722.381ZM530.381 798.4C530.381 798.4 530.381 794.533 530.381 786.8V760V733.2V721.6H541.981H568.781H595.581H607.181C607.181 721.6 607.181 725.467 607.181 733.2V760V786.8V798.4C607.181 798.4 603.315 798.4 595.581 798.4H568.781H541.981H530.381ZM722.381 798.4C722.381 798.4 722.381 794.533 722.381 786.8V760V733.2V721.6H733.981H760.781H787.581H799.181C799.181 721.6 799.181 725.467 799.181 733.2V760V786.8V798.4C799.181 798.4 795.315 798.4 787.581 798.4H760.781H733.981H722.381ZM530.381 750.4C530.381 750.4 530.381 746.533 530.381 738.8V712V685.2V673.6H541.981H568.781H595.581H607.181C607.181 673.6 607.181 677.467 607.181 685.2V712V738.8V750.4C607.181 750.4 603.315 750.4 595.581 750.4H568.781H541.981H530.381ZM530.381 702.4C530.381 702.4 530.381 698.533 530.381 690.8V664V637.2V625.6H541.981H568.781H595.581H607.181C607.181 625.6 607.181 629.467 607.181 637.2V664V690.8V702.4C607.181 702.4 603.315 702.4 595.581 702.4H568.781H541.981H530.381ZM530.381 654.4C530.381 654.4 530.381 650.533 530.381 642.8V616V589.2V577.6H541.981H568.781H595.581H607.181C607.181 577.6 607.181 581.467 607.181 589.2V616V642.8V654.4C607.181 654.4 603.315 654.4 595.581 654.4H568.781H541.981H530.381ZM530.381 606.4C530.381 606.4 530.381 602.533 530.381 594.8V568V541.2V529.6H541.981H568.781H595.581H607.181C607.181 529.6 607.181 533.467 607.181 541.2V568V594.8V606.4C607.181 606.4 603.315 606.4 595.581 606.4H568.781H541.981H530.381ZM530.381 558.4C530.381 558.4 530.381 554.533 530.381 546.8V520V493.2V481.6H541.981H568.781H595.581H607.181C607.181 481.6 607.181 485.467 607.181 493.2V520V546.8V558.4C607.181 558.4 603.315 558.4 595.581 558.4H568.781H541.981H530.381ZM530.381 510.4C530.381 510.4 530.381 506.533 530.381 498.8V472V445.2V433.6H541.981H568.781H595.581H607.181C607.181 433.6 607.181 437.467 607.181 445.2V472V498.8V510.4C607.181 510.4 603.315 510.4 595.581 510.4H568.781H541.981H530.381ZM722.381 510.4C722.381 510.4 722.381 506.533 722.381 498.8V472V445.2V433.6H733.981H760.781H787.581H799.181C799.181 433.6 799.181 437.467 799.181 445.2V472V498.8V510.4C799.181 510.4 795.315 510.4 787.581 510.4H760.781H733.981H722.381ZM530.381 462.4C530.381 462.4 530.381 458.533 530.381 450.8V424V397.2V385.6H541.981H568.781H595.581H607.181C607.181 385.6 607.181 389.467 607.181 397.2V424V450.8V462.4C607.181 462.4 603.315 462.4 595.581 462.4H568.781H541.981H530.381ZM722.381 462.4C722.381 462.4 722.381 458.533 722.381 450.8V424V397.2V385.6H733.981H760.781H787.581H799.181C799.181 385.6 799.181 389.467 799.181 397.2V424V450.8V462.4C799.181 462.4 795.315 462.4 787.581 462.4H760.781H733.981H722.381ZM578.381 414.4C578.381 414.4 578.381 410.533 578.381 402.8V376V349.2V337.6H589.981H616.781H643.581H655.181C655.181 337.6 655.181 341.467 655.181 349.2V376V402.8V414.4C655.181 414.4 651.315 414.4 643.581 414.4H616.781H589.981H578.381ZM626.381 414.4C626.381 414.4 626.381 410.533 626.381 402.8V376V349.2V337.6H637.981H664.781H691.581H703.181C703.181 337.6 703.181 341.467 703.181 349.2V376V402.8V414.4C703.181 414.4 699.315 414.4 691.581 414.4H664.781H637.981H626.381ZM674.381 414.4C674.381 414.4 674.381 410.533 674.381 402.8V376V349.2V337.6H685.981H712.781H739.581H751.181C751.181 337.6 751.181 341.467 751.181 349.2V376V402.8V414.4C751.181 414.4 747.315 414.4 739.581 414.4H712.781H685.981H674.381ZM914.663 894.4C914.663 894.4 914.663 890.533 914.663 882.8V856V829.2V817.6H926.263H953.063H979.863H991.463C991.463 817.6 991.463 821.467 991.463 829.2V856V882.8V894.4C991.463 894.4 987.596 894.4 979.863 894.4H953.063H926.263H914.663ZM962.663 894.4C962.663 894.4 962.663 890.533 962.663 882.8V856V829.2V817.6H974.263H1001.06H1027.86H1039.46C1039.46 817.6 1039.46 821.467 1039.46 829.2V856V882.8V894.4C1039.46 894.4 1035.6 894.4 1027.86 894.4H1001.06H974.263H962.663ZM1010.66 894.4C1010.66 894.4 1010.66 890.533 1010.66 882.8V856V829.2V817.6H1022.26H1049.06H1075.86H1087.46C1087.46 817.6 1087.46 821.467 1087.46 829.2V856V882.8V894.4C1087.46 894.4 1083.6 894.4 1075.86 894.4H1049.06H1022.26H1010.66ZM866.663 846.4C866.663 846.4 866.663 842.533 866.663 834.8V808V781.2V769.6H878.263H905.063H931.863H943.463C943.463 769.6 943.463 773.467 943.463 781.2V808V834.8V846.4C943.463 846.4 939.596 846.4 931.863 846.4H905.063H878.263H866.663ZM1058.66 846.4C1058.66 846.4 1058.66 842.533 1058.66 834.8V808V781.2V769.6H1070.26H1097.06H1123.86H1135.46C1135.46 769.6 1135.46 773.467 1135.46 781.2V808V834.8V846.4C1135.46 846.4 1131.6 846.4 1123.86 846.4H1097.06H1070.26H1058.66ZM866.663 798.4C866.663 798.4 866.663 794.533 866.663 786.8V760V733.2V721.6H878.263H905.063H931.863H943.463C943.463 721.6 943.463 725.467 943.463 733.2V760V786.8V798.4C943.463 798.4 939.596 798.4 931.863 798.4H905.063H878.263H866.663ZM1058.66 798.4C1058.66 798.4 1058.66 794.533 1058.66 786.8V760V733.2V721.6H1070.26H1097.06H1123.86H1135.46C1135.46 721.6 1135.46 725.467 1135.46 733.2V760V786.8V798.4C1135.46 798.4 1131.6 798.4 1123.86 798.4H1097.06H1070.26H1058.66ZM866.663 750.4C866.663 750.4 866.663 746.533 866.663 738.8V712V685.2V673.6H878.263H905.063H931.863H943.463C943.463 673.6 943.463 677.467 943.463 685.2V712V738.8V750.4C943.463 750.4 939.596 750.4 931.863 750.4H905.063H878.263H866.663ZM1058.66 750.4C1058.66 750.4 1058.66 746.533 1058.66 738.8V712V685.2V673.6H1070.26H1097.06H1123.86H1135.46C1135.46 673.6 1135.46 677.467 1135.46 685.2V712V738.8V750.4C1135.46 750.4 1131.6 750.4 1123.86 750.4H1097.06H1070.26H1058.66ZM1010.66 702.4C1010.66 702.4 1010.66 698.533 1010.66 690.8V664V637.2V625.6H1022.26H1049.06H1075.86H1087.46C1087.46 625.6 1087.46 629.467 1087.46 637.2V664V690.8V702.4C1087.46 702.4 1083.6 702.4 1075.86 702.4H1049.06H1022.26H1010.66ZM962.663 654.4C962.663 654.4 962.663 650.533 962.663 642.8V616V589.2V577.6H974.263H1001.06H1027.86H1039.46C1039.46 577.6 1039.46 581.467 1039.46 589.2V616V642.8V654.4C1039.46 654.4 1035.6 654.4 1027.86 654.4H1001.06H974.263H962.663ZM914.663 606.4C914.663 606.4 914.663 602.533 914.663 594.8V568V541.2V529.6H926.263H953.063H979.863H991.463C991.463 529.6 991.463 533.467 991.463 541.2V568V594.8V606.4C991.463 606.4 987.596 606.4 979.863 606.4H953.063H926.263H914.663ZM866.663 558.4C866.663 558.4 866.663 554.533 866.663 546.8V520V493.2V481.6H878.263H905.063H931.863H943.463C943.463 481.6 943.463 485.467 943.463 493.2V520V546.8V558.4C943.463 558.4 939.596 558.4 931.863 558.4H905.063H878.263H866.663ZM866.663 510.4C866.663 510.4 866.663 506.533 866.663 498.8V472V445.2V433.6H878.263H905.063H931.863H943.463C943.463 433.6 943.463 437.467 943.463 445.2V472V498.8V510.4C943.463 510.4 939.596 510.4 931.863 510.4H905.063H878.263H866.663ZM1058.66 510.4C1058.66 510.4 1058.66 506.533 1058.66 498.8V472V445.2V433.6H1070.26H1097.06H1123.86H1135.46C1135.46 433.6 1135.46 437.467 1135.46 445.2V472V498.8V510.4C1135.46 510.4 1131.6 510.4 1123.86 510.4H1097.06H1070.26H1058.66ZM866.663 462.4C866.663 462.4 866.663 458.533 866.663 450.8V424V397.2V385.6H878.263H905.063H931.863H943.463C943.463 385.6 943.463 389.467 943.463 397.2V424V450.8V462.4C943.463 462.4 939.596 462.4 931.863 462.4H905.063H878.263H866.663ZM1058.66 462.4C1058.66 462.4 1058.66 458.533 1058.66 450.8V424V397.2V385.6H1070.26H1097.06H1123.86H1135.46C1135.46 385.6 1135.46 389.467 1135.46 397.2V424V450.8V462.4C1135.46 462.4 1131.6 462.4 1123.86 462.4H1097.06H1070.26H1058.66ZM914.663 414.4C914.663 414.4 914.663 410.533 914.663 402.8V376V349.2V337.6H926.263H953.063H979.863H991.463C991.463 337.6 991.463 341.467 991.463 349.2V376V402.8V414.4C991.463 414.4 987.596 414.4 979.863 414.4H953.063H926.263H914.663ZM962.663 414.4C962.663 414.4 962.663 410.533 962.663 402.8V376V349.2V337.6H974.263H1001.06H1027.86H1039.46C1039.46 337.6 1039.46 341.467 1039.46 349.2V376V402.8V414.4C1039.46 414.4 1035.6 414.4 1027.86 414.4H1001.06H974.263H962.663ZM1010.66 414.4C1010.66 414.4 1010.66 410.533 1010.66 402.8V376V349.2V337.6H1022.26H1049.06H1075.86H1087.46C1087.46 337.6 1087.46 341.467 1087.46 349.2V376V402.8V414.4C1087.46 414.4 1083.6 414.4 1075.86 414.4H1049.06H1022.26H1010.66ZM1178.94 894.4C1178.94 894.4 1178.94 890.533 1178.94 882.8V856V829.2V817.6H1190.54H1217.34H1244.14H1255.74C1255.74 817.6 1255.74 821.467 1255.74 829.2V856V882.8V894.4C1255.74 894.4 1251.88 894.4 1244.14 894.4H1217.34H1190.54H1178.94ZM1226.94 894.4C1226.94 894.4 1226.94 890.533 1226.94 882.8V856V829.2V817.6H1238.54H1265.34H1292.14H1303.74C1303.74 817.6 1303.74 821.467 1303.74 829.2V856V882.8V894.4C1303.74 894.4 1299.88 894.4 1292.14 894.4H1265.34H1238.54H1226.94ZM1274.94 894.4C1274.94 894.4 1274.94 890.533 1274.94 882.8V856V829.2V817.6H1286.54H1313.34H1340.14H1351.74C1351.74 817.6 1351.74 821.467 1351.74 829.2V856V882.8V894.4C1351.74 894.4 1347.88 894.4 1340.14 894.4H1313.34H1286.54H1274.94ZM1226.94 846.4C1226.94 846.4 1226.94 842.533 1226.94 834.8V808V781.2V769.6H1238.54H1265.34H1292.14H1303.74C1303.74 769.6 1303.74 773.467 1303.74 781.2V808V834.8V846.4C1303.74 846.4 1299.88 846.4 1292.14 846.4H1265.34H1238.54H1226.94ZM1226.94 798.4C1226.94 798.4 1226.94 794.533 1226.94 786.8V760V733.2V721.6H1238.54H1265.34H1292.14H1303.74C1303.74 721.6 1303.74 725.467 1303.74 733.2V760V786.8V798.4C1303.74 798.4 1299.88 798.4 1292.14 798.4H1265.34H1238.54H1226.94ZM1226.94 750.4C1226.94 750.4 1226.94 746.533 1226.94 738.8V712V685.2V673.6H1238.54H1265.34H1292.14H1303.74C1303.74 673.6 1303.74 677.467 1303.74 685.2V712V738.8V750.4C1303.74 750.4 1299.88 750.4 1292.14 750.4H1265.34H1238.54H1226.94ZM1226.94 702.4C1226.94 702.4 1226.94 698.533 1226.94 690.8V664V637.2V625.6H1238.54H1265.34H1292.14H1303.74C1303.74 625.6 1303.74 629.467 1303.74 637.2V664V690.8V702.4C1303.74 702.4 1299.88 702.4 1292.14 702.4H1265.34H1238.54H1226.94ZM1226.94 654.4C1226.94 654.4 1226.94 650.533 1226.94 642.8V616V589.2V577.6H1238.54H1265.34H1292.14H1303.74C1303.74 577.6 1303.74 581.467 1303.74 589.2V616V642.8V654.4C1303.74 654.4 1299.88 654.4 1292.14 654.4H1265.34H1238.54H1226.94ZM1226.94 606.4C1226.94 606.4 1226.94 602.533 1226.94 594.8V568V541.2V529.6H1238.54H1265.34H1292.14H1303.74C1303.74 529.6 1303.74 533.467 1303.74 541.2V568V594.8V606.4C1303.74 606.4 1299.88 606.4 1292.14 606.4H1265.34H1238.54H1226.94ZM1226.94 558.4C1226.94 558.4 1226.94 554.533 1226.94 546.8V520V493.2V481.6H1238.54H1265.34H1292.14H1303.74C1303.74 481.6 1303.74 485.467 1303.74 493.2V520V546.8V558.4C1303.74 558.4 1299.88 558.4 1292.14 558.4H1265.34H1238.54H1226.94ZM1226.94 510.4C1226.94 510.4 1226.94 506.533 1226.94 498.8V472V445.2V433.6H1238.54H1265.34H1292.14H1303.74C1303.74 433.6 1303.74 437.467 1303.74 445.2V472V498.8V510.4C1303.74 510.4 1299.88 510.4 1292.14 510.4H1265.34H1238.54H1226.94ZM1226.94 462.4C1226.94 462.4 1226.94 458.533 1226.94 450.8V424V397.2V385.6H1238.54H1265.34H1292.14H1303.74C1303.74 385.6 1303.74 389.467 1303.74 397.2V424V450.8V462.4C1303.74 462.4 1299.88 462.4 1292.14 462.4H1265.34H1238.54H1226.94ZM1178.94 414.4C1178.94 414.4 1178.94 410.533 1178.94 402.8V376V349.2V337.6H1190.54H1217.34H1244.14H1255.74C1255.74 337.6 1255.74 341.467 1255.74 349.2V376V402.8V414.4C1255.74 414.4 1251.88 414.4 1244.14 414.4H1217.34H1190.54H1178.94ZM1226.94 414.4C1226.94 414.4 1226.94 410.533 1226.94 402.8V376V349.2V337.6H1238.54H1265.34H1292.14H1303.74C1303.74 337.6 1303.74 341.467 1303.74 349.2V376V402.8V414.4C1303.74 414.4 1299.88 414.4 1292.14 414.4H1265.34H1238.54H1226.94ZM1274.94 414.4C1274.94 414.4 1274.94 410.533 1274.94 402.8V376V349.2V337.6H1286.54H1313.34H1340.14H1351.74C1351.74 337.6 1351.74 341.467 1351.74 349.2V376V402.8V414.4C1351.74 414.4 1347.88 414.4 1340.14 414.4H1313.34H1286.54H1274.94ZM1442.99 894.4C1442.99 894.4 1442.99 890.533 1442.99 882.8V856V829.2V817.6H1454.59H1481.39H1508.19H1519.79C1519.79 817.6 1519.79 821.467 1519.79 829.2V856V882.8V894.4C1519.79 894.4 1515.92 894.4 1508.19 894.4H1481.39H1454.59H1442.99ZM1490.99 894.4C1490.99 894.4 1490.99 890.533 1490.99 882.8V856V829.2V817.6H1502.59H1529.39H1556.19H1567.79C1567.79 817.6 1567.79 821.467 1567.79 829.2V856V882.8V894.4C1567.79 894.4 1563.92 894.4 1556.19 894.4H1529.39H1502.59H1490.99ZM1538.99 894.4C1538.99 894.4 1538.99 890.533 1538.99 882.8V856V829.2V817.6H1550.59H1577.39H1604.19H1615.79C1615.79 817.6 1615.79 821.467 1615.79 829.2V856V882.8V894.4C1615.79 894.4 1611.92 894.4 1604.19 894.4H1577.39H1550.59H1538.99ZM1394.99 846.4C1394.99 846.4 1394.99 842.533 1394.99 834.8V808V781.2V769.6H1406.59H1433.39H1460.19H1471.79C1471.79 769.6 1471.79 773.467 1471.79 781.2V808V834.8V846.4C1471.79 846.4 1467.92 846.4 1460.19 846.4H1433.39H1406.59H1394.99ZM1586.99 846.4C1586.99 846.4 1586.99 842.533 1586.99 834.8V808V781.2V769.6H1598.59H1625.39H1652.19H1663.79C1663.79 769.6 1663.79 773.467 1663.79 781.2V808V834.8V846.4C1663.79 846.4 1659.92 846.4 1652.19 846.4H1625.39H1598.59H1586.99ZM1394.99 798.4C1394.99 798.4 1394.99 794.533 1394.99 786.8V760V733.2V721.6H1406.59H1433.39H1460.19H1471.79C1471.79 721.6 1471.79 725.467 1471.79 733.2V760V786.8V798.4C1471.79 798.4 1467.92 798.4 1460.19 798.4H1433.39H1406.59H1394.99ZM1586.99 798.4C1586.99 798.4 1586.99 794.533 1586.99 786.8V760V733.2V721.6H1598.59H1625.39H1652.19H1663.79C1663.79 721.6 1663.79 725.467 1663.79 733.2V760V786.8V798.4C1663.79 798.4 1659.92 798.4 1652.19 798.4H1625.39H1598.59H1586.99ZM1394.99 750.4C1394.99 750.4 1394.99 746.533 1394.99 738.8V712V685.2V673.6H1406.59H1433.39H1460.19H1471.79C1471.79 673.6 1471.79 677.467 1471.79 685.2V712V738.8V750.4C1471.79 750.4 1467.92 750.4 1460.19 750.4H1433.39H1406.59H1394.99ZM1586.99 750.4C1586.99 750.4 1586.99 746.533 1586.99 738.8V712V685.2V673.6H1598.59H1625.39H1652.19H1663.79C1663.79 673.6 1663.79 677.467 1663.79 685.2V712V738.8V750.4C1663.79 750.4 1659.92 750.4 1652.19 750.4H1625.39H1598.59H1586.99ZM1394.99 702.4C1394.99 702.4 1394.99 698.533 1394.99 690.8V664V637.2V625.6H1406.59H1433.39H1460.19H1471.79C1471.79 625.6 1471.79 629.467 1471.79 637.2V664V690.8V702.4C1471.79 702.4 1467.92 702.4 1460.19 702.4H1433.39H1406.59H1394.99ZM1490.99 702.4C1490.99 702.4 1490.99 698.533 1490.99 690.8V664V637.2V625.6H1502.59H1529.39H1556.19H1567.79C1567.79 625.6 1567.79 629.467 1567.79 637.2V664V690.8V702.4C1567.79 702.4 1563.92 702.4 1556.19 702.4H1529.39H1502.59H1490.99ZM1538.99 702.4C1538.99 702.4 1538.99 698.533 1538.99 690.8V664V637.2V625.6H1550.59H1577.39H1604.19H1615.79C1615.79 625.6 1615.79 629.467 1615.79 637.2V664V690.8V702.4C1615.79 702.4 1611.92 702.4 1604.19 702.4H1577.39H1550.59H1538.99ZM1586.99 702.4C1586.99 702.4 1586.99 698.533 1586.99 690.8V664V637.2V625.6H1598.59H1625.39H1652.19H1663.79C1663.79 625.6 1663.79 629.467 1663.79 637.2V664V690.8V702.4C1663.79 702.4 1659.92 702.4 1652.19 702.4H1625.39H1598.59H1586.99ZM1394.99 654.4C1394.99 654.4 1394.99 650.533 1394.99 642.8V616V589.2V577.6H1406.59H1433.39H1460.19H1471.79C1471.79 577.6 1471.79 581.467 1471.79 589.2V616V642.8V654.4C1471.79 654.4 1467.92 654.4 1460.19 654.4H1433.39H1406.59H1394.99ZM1394.99 606.4C1394.99 606.4 1394.99 602.533 1394.99 594.8V568V541.2V529.6H1406.59H1433.39H1460.19H1471.79C1471.79 529.6 1471.79 533.467 1471.79 541.2V568V594.8V606.4C1471.79 606.4 1467.92 606.4 1460.19 606.4H1433.39H1406.59H1394.99ZM1394.99 558.4C1394.99 558.4 1394.99 554.533 1394.99 546.8V520V493.2V481.6H1406.59H1433.39H1460.19H1471.79C1471.79 481.6 1471.79 485.467 1471.79 493.2V520V546.8V558.4C1471.79 558.4 1467.92 558.4 1460.19 558.4H1433.39H1406.59H1394.99ZM1586.99 558.4C1586.99 558.4 1586.99 554.533 1586.99 546.8V520V493.2V481.6H1598.59H1625.39H1652.19H1663.79C1663.79 481.6 1663.79 485.467 1663.79 493.2V520V546.8V558.4C1663.79 558.4 1659.92 558.4 1652.19 558.4H1625.39H1598.59H1586.99ZM1394.99 510.4C1394.99 510.4 1394.99 506.533 1394.99 498.8V472V445.2V433.6H1406.59H1433.39H1460.19H1471.79C1471.79 433.6 1471.79 437.467 1471.79 445.2V472V498.8V510.4C1471.79 510.4 1467.92 510.4 1460.19 510.4H1433.39H1406.59H1394.99ZM1586.99 510.4C1586.99 510.4 1586.99 506.533 1586.99 498.8V472V445.2V433.6H1598.59H1625.39H1652.19H1663.79C1663.79 433.6 1663.79 437.467 1663.79 445.2V472V498.8V510.4C1663.79 510.4 1659.92 510.4 1652.19 510.4H1625.39H1598.59H1586.99ZM1394.99 462.4C1394.99 462.4 1394.99 458.533 1394.99 450.8V424V397.2V385.6H1406.59H1433.39H1460.19H1471.79C1471.79 385.6 1471.79 389.467 1471.79 397.2V424V450.8V462.4C1471.79 462.4 1467.92 462.4 1460.19 462.4H1433.39H1406.59H1394.99ZM1586.99 462.4C1586.99 462.4 1586.99 458.533 1586.99 450.8V424V397.2V385.6H1598.59H1625.39H1652.19H1663.79C1663.79 385.6 1663.79 389.467 1663.79 397.2V424V450.8V462.4C1663.79 462.4 1659.92 462.4 1652.19 462.4H1625.39H1598.59H1586.99ZM1442.99 414.4C1442.99 414.4 1442.99 410.533 1442.99 402.8V376V349.2V337.6H1454.59H1481.39H1508.19H1519.79C1519.79 337.6 1519.79 341.467 1519.79 349.2V376V402.8V414.4C1519.79 414.4 1515.92 414.4 1508.19 414.4H1481.39H1454.59H1442.99ZM1490.99 414.4C1490.99 414.4 1490.99 410.533 1490.99 402.8V376V349.2V337.6H1502.59H1529.39H1556.19H1567.79C1567.79 337.6 1567.79 341.467 1567.79 349.2V376V402.8V414.4C1567.79 414.4 1563.92 414.4 1556.19 414.4H1529.39H1502.59H1490.99ZM1538.99 414.4C1538.99 414.4 1538.99 410.533 1538.99 402.8V376V349.2V337.6H1550.59H1577.39H1604.19H1615.79C1615.79 337.6 1615.79 341.467 1615.79 349.2V376V402.8V414.4C1615.79 414.4 1611.92 414.4 1604.19 414.4H1577.39H1550.59H1538.99ZM1731.27 894.4C1731.27 894.4 1731.27 890.533 1731.27 882.8V856V829.2V817.6H1742.87H1769.67H1796.47H1808.07C1808.07 817.6 1808.07 821.467 1808.07 829.2V856V882.8V894.4C1808.07 894.4 1804.21 894.4 1796.47 894.4H1769.67H1742.87H1731.27ZM1923.27 894.4C1923.27 894.4 1923.27 890.533 1923.27 882.8V856V829.2V817.6H1934.87H1961.67H1988.47H2000.07C2000.07 817.6 2000.07 821.467 2000.07 829.2V856V882.8V894.4C2000.07 894.4 1996.21 894.4 1988.47 894.4H1961.67H1934.87H1923.27ZM1731.27 846.4C1731.27 846.4 1731.27 842.533 1731.27 834.8V808V781.2V769.6H1742.87H1769.67H1796.47H1808.07C1808.07 769.6 1808.07 773.467 1808.07 781.2V808V834.8V846.4C1808.07 846.4 1804.21 846.4 1796.47 846.4H1769.67H1742.87H1731.27ZM1923.27 846.4C1923.27 846.4 1923.27 842.533 1923.27 834.8V808V781.2V769.6H1934.87H1961.67H1988.47H2000.07C2000.07 769.6 2000.07 773.467 2000.07 781.2V808V834.8V846.4C2000.07 846.4 1996.21 846.4 1988.47 846.4H1961.67H1934.87H1923.27ZM1731.27 798.4C1731.27 798.4 1731.27 794.533 1731.27 786.8V760V733.2V721.6H1742.87H1769.67H1796.47H1808.07C1808.07 721.6 1808.07 725.467 1808.07 733.2V760V786.8V798.4C1808.07 798.4 1804.21 798.4 1796.47 798.4H1769.67H1742.87H1731.27ZM1923.27 798.4C1923.27 798.4 1923.27 794.533 1923.27 786.8V760V733.2V721.6H1934.87H1961.67H1988.47H2000.07C2000.07 721.6 2000.07 725.467 2000.07 733.2V760V786.8V798.4C2000.07 798.4 1996.21 798.4 1988.47 798.4H1961.67H1934.87H1923.27ZM1731.27 750.4C1731.27 750.4 1731.27 746.533 1731.27 738.8V712V685.2V673.6H1742.87H1769.67H1796.47H1808.07C1808.07 673.6 1808.07 677.467 1808.07 685.2V712V738.8V750.4C1808.07 750.4 1804.21 750.4 1796.47 750.4H1769.67H1742.87H1731.27ZM1923.27 750.4C1923.27 750.4 1923.27 746.533 1923.27 738.8V712V685.2V673.6H1934.87H1961.67H1988.47H2000.07C2000.07 673.6 2000.07 677.467 2000.07 685.2V712V738.8V750.4C2000.07 750.4 1996.21 750.4 1988.47 750.4H1961.67H1934.87H1923.27ZM1731.27 702.4C1731.27 702.4 1731.27 698.533 1731.27 690.8V664V637.2V625.6H1742.87H1769.67H1796.47H1808.07C1808.07 625.6 1808.07 629.467 1808.07 637.2V664V690.8V702.4C1808.07 702.4 1804.21 702.4 1796.47 702.4H1769.67H1742.87H1731.27ZM1923.27 702.4C1923.27 702.4 1923.27 698.533 1923.27 690.8V664V637.2V625.6H1934.87H1961.67H1988.47H2000.07C2000.07 625.6 2000.07 629.467 2000.07 637.2V664V690.8V702.4C2000.07 702.4 1996.21 702.4 1988.47 702.4H1961.67H1934.87H1923.27ZM1731.27 654.4C1731.27 654.4 1731.27 650.533 1731.27 642.8V616V589.2V577.6H1742.87H1769.67H1796.47H1808.07C1808.07 577.6 1808.07 581.467 1808.07 589.2V616V642.8V654.4C1808.07 654.4 1804.21 654.4 1796.47 654.4H1769.67H1742.87H1731.27ZM1779.27 654.4C1779.27 654.4 1779.27 650.533 1779.27 642.8V616V589.2V577.6H1790.87H1817.67H1844.47H1856.07C1856.07 577.6 1856.07 581.467 1856.07 589.2V616V642.8V654.4C1856.07 654.4 1852.21 654.4 1844.47 654.4H1817.67H1790.87H1779.27ZM1827.27 654.4C1827.27 654.4 1827.27 650.533 1827.27 642.8V616V589.2V577.6H1838.87H1865.67H1892.47H1904.07C1904.07 577.6 1904.07 581.467 1904.07 589.2V616V642.8V654.4C1904.07 654.4 1900.21 654.4 1892.47 654.4H1865.67H1838.87H1827.27ZM1875.27 654.4C1875.27 654.4 1875.27 650.533 1875.27 642.8V616V589.2V577.6H1886.87H1913.67H1940.47H1952.07C1952.07 577.6 1952.07 581.467 1952.07 589.2V616V642.8V654.4C1952.07 654.4 1948.21 654.4 1940.47 654.4H1913.67H1886.87H1875.27ZM1923.27 654.4C1923.27 654.4 1923.27 650.533 1923.27 642.8V616V589.2V577.6H1934.87H1961.67H1988.47H2000.07C2000.07 577.6 2000.07 581.467 2000.07 589.2V616V642.8V654.4C2000.07 654.4 1996.21 654.4 1988.47 654.4H1961.67H1934.87H1923.27ZM1731.27 606.4C1731.27 606.4 1731.27 602.533 1731.27 594.8V568V541.2V529.6H1742.87H1769.67H1796.47H1808.07C1808.07 529.6 1808.07 533.467 1808.07 541.2V568V594.8V606.4C1808.07 606.4 1804.21 606.4 1796.47 606.4H1769.67H1742.87H1731.27ZM1923.27 606.4C1923.27 606.4 1923.27 602.533 1923.27 594.8V568V541.2V529.6H1934.87H1961.67H1988.47H2000.07C2000.07 529.6 2000.07 533.467 2000.07 541.2V568V594.8V606.4C2000.07 606.4 1996.21 606.4 1988.47 606.4H1961.67H1934.87H1923.27ZM1731.27 558.4C1731.27 558.4 1731.27 554.533 1731.27 546.8V520V493.2V481.6H1742.87H1769.67H1796.47H1808.07C1808.07 481.6 1808.07 485.467 1808.07 493.2V520V546.8V558.4C1808.07 558.4 1804.21 558.4 1796.47 558.4H1769.67H1742.87H1731.27ZM1923.27 558.4C1923.27 558.4 1923.27 554.533 1923.27 546.8V520V493.2V481.6H1934.87H1961.67H1988.47H2000.07C2000.07 481.6 2000.07 485.467 2000.07 493.2V520V546.8V558.4C2000.07 558.4 1996.21 558.4 1988.47 558.4H1961.67H1934.87H1923.27ZM1731.27 510.4C1731.27 510.4 1731.27 506.533 1731.27 498.8V472V445.2V433.6H1742.87H1769.67H1796.47H1808.07C1808.07 433.6 1808.07 437.467 1808.07 445.2V472V498.8V510.4C1808.07 510.4 1804.21 510.4 1796.47 510.4H1769.67H1742.87H1731.27ZM1923.27 510.4C1923.27 510.4 1923.27 506.533 1923.27 498.8V472V445.2V433.6H1934.87H1961.67H1988.47H2000.07C2000.07 433.6 2000.07 437.467 2000.07 445.2V472V498.8V510.4C2000.07 510.4 1996.21 510.4 1988.47 510.4H1961.67H1934.87H1923.27ZM1731.27 462.4C1731.27 462.4 1731.27 458.533 1731.27 450.8V424V397.2V385.6H1742.87H1769.67H1796.47H1808.07C1808.07 385.6 1808.07 389.467 1808.07 397.2V424V450.8V462.4C1808.07 462.4 1804.21 462.4 1796.47 462.4H1769.67H1742.87H1731.27ZM1923.27 462.4C1923.27 462.4 1923.27 458.533 1923.27 450.8V424V397.2V385.6H1934.87H1961.67H1988.47H2000.07C2000.07 385.6 2000.07 389.467 2000.07 397.2V424V450.8V462.4C2000.07 462.4 1996.21 462.4 1988.47 462.4H1961.67H1934.87H1923.27ZM1731.27 414.4C1731.27 414.4 1731.27 410.533 1731.27 402.8V376V349.2V337.6H1742.87H1769.67H1796.47H1808.07C1808.07 337.6 1808.07 341.467 1808.07 349.2V376V402.8V414.4C1808.07 414.4 1804.21 414.4 1796.47 414.4H1769.67H1742.87H1731.27ZM1923.27 414.4C1923.27 414.4 1923.27 410.533 1923.27 402.8V376V349.2V337.6H1934.87H1961.67H1988.47H2000.07C2000.07 337.6 2000.07 341.467 2000.07 349.2V376V402.8V414.4C2000.07 414.4 1996.21 414.4 1988.47 414.4H1961.67H1934.87H1923.27ZM2115.55 894.4C2115.55 894.4 2115.55 890.533 2115.55 882.8V856V829.2V817.6H2127.15H2153.95H2180.75H2192.35C2192.35 817.6 2192.35 821.467 2192.35 829.2V856V882.8V894.4C2192.35 894.4 2188.49 894.4 2180.75 894.4H2153.95H2127.15H2115.55ZM2115.55 846.4C2115.55 846.4 2115.55 842.533 2115.55 834.8V808V781.2V769.6H2127.15H2153.95H2180.75H2192.35C2192.35 769.6 2192.35 773.467 2192.35 781.2V808V834.8V846.4C2192.35 846.4 2188.49 846.4 2180.75 846.4H2153.95H2127.15H2115.55ZM2115.55 798.4C2115.55 798.4 2115.55 794.533 2115.55 786.8V760V733.2V721.6H2127.15H2153.95H2180.75H2192.35C2192.35 721.6 2192.35 725.467 2192.35 733.2V760V786.8V798.4C2192.35 798.4 2188.49 798.4 2180.75 798.4H2153.95H2127.15H2115.55ZM2115.55 750.4C2115.55 750.4 2115.55 746.533 2115.55 738.8V712V685.2V673.6H2127.15H2153.95H2180.75H2192.35C2192.35 673.6 2192.35 677.467 2192.35 685.2V712V738.8V750.4C2192.35 750.4 2188.49 750.4 2180.75 750.4H2153.95H2127.15H2115.55ZM2115.55 702.4C2115.55 702.4 2115.55 698.533 2115.55 690.8V664V637.2V625.6H2127.15H2153.95H2180.75H2192.35C2192.35 625.6 2192.35 629.467 2192.35 637.2V664V690.8V702.4C2192.35 702.4 2188.49 702.4 2180.75 702.4H2153.95H2127.15H2115.55ZM2115.55 654.4C2115.55 654.4 2115.55 650.533 2115.55 642.8V616V589.2V577.6H2127.15H2153.95H2180.75H2192.35C2192.35 577.6 2192.35 581.467 2192.35 589.2V616V642.8V654.4C2192.35 654.4 2188.49 654.4 2180.75 654.4H2153.95H2127.15H2115.55ZM2115.55 606.4C2115.55 606.4 2115.55 602.533 2115.55 594.8V568V541.2V529.6H2127.15H2153.95H2180.75H2192.35C2192.35 529.6 2192.35 533.467 2192.35 541.2V568V594.8V606.4C2192.35 606.4 2188.49 606.4 2180.75 606.4H2153.95H2127.15H2115.55ZM2115.55 558.4C2115.55 558.4 2115.55 554.533 2115.55 546.8V520V493.2V481.6H2127.15H2153.95H2180.75H2192.35C2192.35 481.6 2192.35 485.467 2192.35 493.2V520V546.8V558.4C2192.35 558.4 2188.49 558.4 2180.75 558.4H2153.95H2127.15H2115.55ZM2115.55 510.4C2115.55 510.4 2115.55 506.533 2115.55 498.8V472V445.2V433.6H2127.15H2153.95H2180.75H2192.35C2192.35 433.6 2192.35 437.467 2192.35 445.2V472V498.8V510.4C2192.35 510.4 2188.49 510.4 2180.75 510.4H2153.95H2127.15H2115.55ZM2115.55 462.4C2115.55 462.4 2115.55 458.533 2115.55 450.8V424V397.2V385.6H2127.15H2153.95H2180.75H2192.35C2192.35 385.6 2192.35 389.467 2192.35 397.2V424V450.8V462.4C2192.35 462.4 2188.49 462.4 2180.75 462.4H2153.95H2127.15H2115.55ZM2019.55 414.4C2019.55 414.4 2019.55 410.533 2019.55 402.8V376V349.2V337.6H2031.15H2057.95H2084.75H2096.35C2096.35 337.6 2096.35 341.467 2096.35 349.2V376V402.8V414.4C2096.35 414.4 2092.49 414.4 2084.75 414.4H2057.95H2031.15H2019.55ZM2067.55 414.4C2067.55 414.4 2067.55 410.533 2067.55 402.8V376V349.2V337.6H2079.15H2105.95H2132.75H2144.35C2144.35 337.6 2144.35 341.467 2144.35 349.2V376V402.8V414.4C2144.35 414.4 2140.49 414.4 2132.75 414.4H2105.95H2079.15H2067.55ZM2115.55 414.4C2115.55 414.4 2115.55 410.533 2115.55 402.8V376V349.2V337.6H2127.15H2153.95H2180.75H2192.35C2192.35 337.6 2192.35 341.467 2192.35 349.2V376V402.8V414.4C2192.35 414.4 2188.49 414.4 2180.75 414.4H2153.95H2127.15H2115.55ZM2163.55 414.4C2163.55 414.4 2163.55 410.533 2163.55 402.8V376V349.2V337.6H2175.15H2201.95H2228.75H2240.35C2240.35 337.6 2240.35 341.467 2240.35 349.2V376V402.8V414.4C2240.35 414.4 2236.49 414.4 2228.75 414.4H2201.95H2175.15H2163.55ZM2211.55 414.4C2211.55 414.4 2211.55 410.533 2211.55 402.8V376V349.2V337.6H2223.15H2249.95H2276.75H2288.35C2288.35 337.6 2288.35 341.467 2288.35 349.2V376V402.8V414.4C2288.35 414.4 2284.49 414.4 2276.75 414.4H2249.95H2223.15H2211.55Z" fill="#E4E4E7"/>
</svg>
